<?xml version="1.0" encoding="utf-8"?>
<!-- Generator: Adobe Illustrator 26.3.1, SVG Export Plug-In . SVG Version: 6.00 Build 0)  -->
<svg version="1.1" xmlns="http://www.w3.org/2000/svg" xmlns:xlink="http://www.w3.org/1999/xlink" x="0px" y="0px"
	 viewBox="0 0 21 21" style="enable-background:new 0 0 21 21;" xml:space="preserve">
<style type="text/css">
	.st0{fill:none;stroke:#350B38;stroke-miterlimit:10;}
	.st1{fill:none;stroke:url(#SVGID_1_);stroke-miterlimit:10;}
	.st2{fill:url(#SVGID_00000119091155184022536120000000931015605327324076_);}
	.st3{fill:url(#SVGID_00000052105124067457249940000000699704417634216885_);}
	.st4{fill:none;stroke:url(#SVGID_00000013885726805884382020000017653316370813097633_);stroke-miterlimit:10;}
	.st5{fill:none;stroke:url(#SVGID_00000174576729177239075170000014030569880119632574_);stroke-miterlimit:10;}
	.st6{fill:none;stroke:url(#SVGID_00000183958639782233276870000005534683505131897252_);stroke-miterlimit:10;}
	
		.st7{fill:none;stroke:url(#SVGID_00000080906542586702438150000017610519443168656774_);stroke-linecap:round;stroke-linejoin:round;stroke-miterlimit:10;}
	
		.st8{fill:none;stroke:url(#SVGID_00000177458776254200047140000001481239808410850209_);stroke-linecap:round;stroke-linejoin:round;stroke-miterlimit:10;}
	.st9{fill:url(#SVGID_00000127037063893736177640000010488033716796142992_);}
	.st10{fill:none;stroke:#350B38;stroke-width:0.75;stroke-linecap:round;stroke-linejoin:round;stroke-miterlimit:10;}
	.st11{fill:url(#SVGID_00000123428537802906238560000011708406904920216477_);}
</style>
<g id="Capa_1">
</g>
<g id="Capa_2">
</g>
<g id="Capa_3">
</g>
<g id="Capa_4">
</g>
<g id="Capa_5">
</g>
<g id="Capa_6">
</g>
<g id="Capa_7">
</g>
<g id="Capa_8">
	<g>
		<polyline class="st10" points="6.5,4.89 6.5,4.01 13.86,4.01 13.86,4.89 		"/>
		<polygon class="st10" points="6.81,5.27 7.52,6.28 8.21,12.42 8.21,13.34 12.67,13.34 12.67,12.42 13.42,5.27 		"/>
		<path class="st10" d="M8.45,13.35c-0.95,0-1.72,0.77-1.72,1.72v1.47h7.36l0-1.47c0-0.95-0.77-1.72-1.72-1.72"/>
		<polyline class="st10" points="14.42,16.9 14.42,17.78 6.5,17.78 6.5,16.9 		"/>
		<linearGradient id="SVGID_1_" gradientUnits="userSpaceOnUse" x1="9.8539" y1="14.3682" x2="10.9793" y2="15.4937">
			<stop  offset="0" style="stop-color:#9E33F2"/>
			<stop  offset="0.3666" style="stop-color:#8600EF"/>
			<stop  offset="1" style="stop-color:#FF2700"/>
		</linearGradient>
		<circle style="fill:url(#SVGID_1_);" cx="10.42" cy="14.93" r="0.8"/>
		<path class="st10" d="M9.36,3.68V2.92c0-0.02,0.01-0.03,0.03-0.03h2.05c0.02,0,0.03,0.01,0.03,0.03v0.75"/>
		<path class="st10" d="M13.35,6.85h0.93c0.12,0,0.21,0.09,0.21,0.21v2.86c0,0.17-0.09,0.33-0.24,0.41l-1.3,0.75"/>
	</g>
</g>
</svg>
