<?xml version="1.0" encoding="utf-8"?>
<!-- Generator: Adobe Illustrator 26.3.1, SVG Export Plug-In . SVG Version: 6.00 Build 0)  -->
<svg version="1.1" id="Capa_6" xmlns="http://www.w3.org/2000/svg" xmlns:xlink="http://www.w3.org/1999/xlink" x="0px" y="0px"
	 viewBox="0 0 21 21" style="enable-background:new 0 0 21 21;" xml:space="preserve">
<style type="text/css">
	.st0{fill:none;stroke:#350B38;stroke-miterlimit:10;}
	.st1{fill:none;stroke:url(#SVGID_1_);stroke-linecap:round;stroke-linejoin:round;stroke-miterlimit:10;}
</style>
<path class="st0" d="M3.83,8.85c0.12-0.42,0.42-0.6,0.84-0.6c0.09,0,0.17-0.02,0.26-0.02c1.09-0.1,2.19-0.2,3.28-0.29
	C8.29,7.92,8.34,7.89,8.37,7.8c0.48-1.13,0.97-2.26,1.44-3.39c0.13-0.31,0.34-0.49,0.68-0.49c0.34,0,0.55,0.19,0.68,0.49
	c0.48,1.13,0.96,2.25,1.44,3.38c0.04,0.09,0.09,0.13,0.19,0.14c1.2,0.1,2.4,0.21,3.59,0.32c0.12,0.01,0.24,0.03,0.35,0.08
	c0.48,0.21,0.57,0.83,0.17,1.19c-0.71,0.63-1.42,1.25-2.13,1.87c-0.22,0.19-0.44,0.39-0.67,0.58c-0.08,0.06-0.09,0.12-0.07,0.22
	c0.28,1.2,0.54,2.39,0.82,3.59c0.07,0.32,0.01,0.59-0.26,0.79c-0.27,0.19-0.55,0.18-0.83,0.01c-1.05-0.63-2.11-1.26-3.16-1.89
	c-0.08-0.05-0.14-0.05-0.22,0c-1.05,0.63-2.11,1.26-3.16,1.89c-0.35,0.21-0.73,0.16-0.96-0.13c-0.15-0.19-0.19-0.4-0.14-0.64
	c0.27-1.19,0.54-2.39,0.82-3.58c0.03-0.13,0.01-0.21-0.1-0.3c-0.88-0.76-1.75-1.53-2.63-2.3C4.05,9.49,3.89,9.33,3.83,9.11
	C3.83,9.02,3.83,8.93,3.83,8.85z"/>
<linearGradient id="SVGID_1_" gradientUnits="userSpaceOnUse" x1="10.8023" y1="7.3841" x2="13.2896" y2="9.8715">
	<stop  offset="0" style="stop-color:#9E33F2"/>
	<stop  offset="0.3666" style="stop-color:#8600EF"/>
	<stop  offset="1" style="stop-color:#FF2700"/>
</linearGradient>
<polyline class="st1" points="8.73,10.16 10.51,11.94 15.36,7.09 "/>
</svg>
