<?xml version="1.0" encoding="utf-8"?>
<!-- Generator: Adobe Illustrator 26.3.1, SVG Export Plug-In . SVG Version: 6.00 Build 0)  -->
<svg version="1.1" id="Capa_5" xmlns="http://www.w3.org/2000/svg" xmlns:xlink="http://www.w3.org/1999/xlink" x="0px" y="0px"
	 viewBox="0 0 21 21" style="enable-background:new 0 0 21 21;" xml:space="preserve">
<style type="text/css">
	.st0{fill:none;stroke:#350B38;stroke-miterlimit:10;}
	.st1{fill:none;stroke:url(#SVGID_1_);stroke-miterlimit:10;}
	.st2{fill:none;stroke:url(#SVGID_00000092435545552547899100000010825409569273755776_);stroke-miterlimit:10;}
	
		.st3{fill:none;stroke:url(#SVGID_00000126319572080557472040000007679354041884975757_);stroke-linecap:round;stroke-linejoin:round;stroke-miterlimit:10;}
</style>
<path class="st0" d="M10.73,16.89c-0.34-0.05-0.59-0.24-0.83-0.48c-0.18-0.19-0.38-0.36-0.57-0.55c-0.12-0.12-0.26-0.16-0.43-0.14
	c-0.32,0.05-0.63,0.1-0.95,0.14c-0.7,0.09-1.21-0.3-1.33-1.01c-0.05-0.3-0.11-0.61-0.16-0.91c-0.03-0.16-0.11-0.28-0.26-0.36
	c-0.29-0.15-0.58-0.3-0.86-0.46c-0.59-0.32-0.79-0.93-0.5-1.54c0.14-0.29,0.28-0.59,0.43-0.88c0.08-0.15,0.08-0.3,0-0.45
	C5.13,9.97,4.99,9.68,4.85,9.39c-0.3-0.62-0.1-1.23,0.51-1.56c0.28-0.15,0.56-0.3,0.84-0.44C6.37,7.3,6.45,7.18,6.48,7
	c0.05-0.32,0.1-0.64,0.17-0.96C6.78,5.36,7.32,5,8,5.11C8.32,5.16,8.63,5.2,8.95,5.25C9.1,5.27,9.22,5.22,9.33,5.12
	c0.24-0.23,0.48-0.47,0.72-0.7c0.49-0.47,1.14-0.47,1.62,0c0.24,0.22,0.47,0.45,0.7,0.68c0.13,0.13,0.27,0.17,0.44,0.14
	c0.32-0.05,0.63-0.1,0.95-0.14c0.69-0.08,1.19,0.29,1.32,0.98c0.06,0.3,0.11,0.61,0.16,0.91c0.03,0.18,0.11,0.3,0.28,0.39
	c0.28,0.14,0.55,0.29,0.83,0.44c0.63,0.33,0.83,0.95,0.51,1.59c-0.13,0.27-0.26,0.55-0.4,0.82c-0.09,0.17-0.09,0.33,0,0.5
	c0.15,0.28,0.28,0.57,0.42,0.85c0.29,0.61,0.09,1.22-0.5,1.54c-0.28,0.15-0.56,0.31-0.85,0.45c-0.17,0.08-0.25,0.21-0.28,0.4
	c-0.05,0.32-0.1,0.63-0.17,0.95c-0.14,0.68-0.67,1.04-1.35,0.94c-0.32-0.05-0.64-0.09-0.95-0.14c-0.15-0.02-0.27,0.02-0.38,0.12
	c-0.19,0.19-0.39,0.37-0.58,0.57c-0.23,0.24-0.49,0.43-0.83,0.48C10.9,16.89,10.82,16.89,10.73,16.89z"/>
<linearGradient id="SVGID_1_" gradientUnits="userSpaceOnUse" x1="7.7371" y1="10.836" x2="9.9792" y2="13.0781">
	<stop  offset="0" style="stop-color:#9E33F2"/>
	<stop  offset="0.3666" style="stop-color:#8600EF"/>
	<stop  offset="1" style="stop-color:#FF2700"/>
</linearGradient>
<circle class="st1" cx="8.86" cy="11.96" r="1.09"/>
<linearGradient id="SVGID_00000152957043409060090910000001905942842543889324_" gradientUnits="userSpaceOnUse" x1="11.7216" y1="7.8852" x2="13.9637" y2="10.1273">
	<stop  offset="0" style="stop-color:#9E33F2"/>
	<stop  offset="0.3666" style="stop-color:#8600EF"/>
	<stop  offset="1" style="stop-color:#FF2700"/>
</linearGradient>
<circle style="fill:none;stroke:url(#SVGID_00000152957043409060090910000001905942842543889324_);stroke-miterlimit:10;" cx="12.84" cy="9.01" r="1.09"/>
<linearGradient id="SVGID_00000170971306430702902120000013903419204315294647_" gradientUnits="userSpaceOnUse" x1="7.8045" y1="7.4968" x2="13.8963" y2="13.5887">
	<stop  offset="0" style="stop-color:#9E33F2"/>
	<stop  offset="0.3666" style="stop-color:#8600EF"/>
	<stop  offset="1" style="stop-color:#FF2700"/>
</linearGradient>
<line style="fill:none;stroke:url(#SVGID_00000170971306430702902120000013903419204315294647_);stroke-linecap:round;stroke-linejoin:round;stroke-miterlimit:10;" x1="8.16" y1="7.85" x2="13.54" y2="13.24"/>
</svg>
