<?xml version="1.0" encoding="utf-8"?>
<!-- Generator: Adobe Illustrator 26.3.1, SVG Export Plug-In . SVG Version: 6.00 Build 0)  -->
<svg version="1.1" id="Capa_2" xmlns="http://www.w3.org/2000/svg" xmlns:xlink="http://www.w3.org/1999/xlink" x="0px" y="0px"
	 viewBox="0 0 21 21" style="enable-background:new 0 0 21 21;" xml:space="preserve">
<style type="text/css">
	.st0{fill:none;stroke:#350B38;stroke-miterlimit:10;}
	.st1{fill:url(#SVGID_1_);}
</style>
<path class="st0" d="M14.72,12.47c0,2.33-1.89,4.22-4.22,4.22s-4.22-1.89-4.22-4.22l0.01-6.84c0-0.71,0.58-1.29,1.29-1.29h5.84
	c0.71,0,1.29,0.58,1.29,1.29L14.72,12.47z"/>
<line class="st0" x1="6.29" y1="9.96" x2="14.71" y2="9.96"/>
<line class="st0" x1="10.5" y1="6.14" x2="10.5" y2="4.34"/>
<line class="st0" x1="10.5" y1="9.94" x2="10.5" y2="8.17"/>
<linearGradient id="SVGID_1_" gradientUnits="userSpaceOnUse" x1="9.5117" y1="6.1608" x2="11.4742" y2="8.1233">
	<stop  offset="0" style="stop-color:#9E33F2"/>
	<stop  offset="0.3666" style="stop-color:#8600EF"/>
	<stop  offset="1" style="stop-color:#FF2700"/>
</linearGradient>
<path class="st1" d="M10.78,8.55h-0.58c-0.36,0-0.65-0.29-0.65-0.65V6.38c0-0.36,0.29-0.65,0.65-0.65h0.58
	c0.36,0,0.65,0.29,0.65,0.65V7.9C11.43,8.26,11.14,8.55,10.78,8.55z"/>
</svg>
