<svg id="Grupo_16634" data-name="Grupo 16634" xmlns="http://www.w3.org/2000/svg" width="19.542" height="35.64" viewBox="0 0 19.542 35.64">
  <path id="Trazado_2040" data-name="Trazado 2040" d="M151.248,120.669a1.067,1.067,0,0,1,.568.5,2.051,2.051,0,0,1,.185.95v2.266h-.92l-.077-.377h-.052a1.01,1.01,0,0,1-.429.336,1.631,1.631,0,0,1-1.245-.028.994.994,0,0,1-.427-.387,1.114,1.114,0,0,1-.148-.58,1.015,1.015,0,0,1,.382-.847,2.184,2.184,0,0,1,1.2-.352l.62-.052v-.049a.843.843,0,0,0-.085-.415.478.478,0,0,0-.272-.214,1.615,1.615,0,0,0-.511-.065,3.747,3.747,0,0,0-.511.038,3.3,3.3,0,0,0-.525.115v-.837a4.146,4.146,0,0,1,.6-.119,5.041,5.041,0,0,1,.631-.042,2.757,2.757,0,0,1,1.007.153m-.621,2.958a.773.773,0,0,0,.282-.183v-.715l-.509.038a.806.806,0,0,0-.457.145.416.416,0,0,0-.143.336.4.4,0,0,0,.129.324.56.56,0,0,0,.376.112.925.925,0,0,0,.321-.057" transform="translate(-147.581 -118.755)" fill="#29aee9"/>
  <path id="Trazado_2041" data-name="Trazado 2041" d="M212.847,91.463h1.116v2.2h.052a1.3,1.3,0,0,1,.46-.329,1.484,1.484,0,0,1,.589-.113,1.187,1.187,0,0,1,.906.362,1.613,1.613,0,0,1,.342,1.137V97.1H215.2V94.8a.668.668,0,0,0-.136-.474.536.536,0,0,0-.4-.139.982.982,0,0,0-.385.08.777.777,0,0,0-.312.234v2.6h-1.116Z" transform="translate(-207.838 -91.463)" fill="#29aee9"/>
  <path id="Trazado_2042" data-name="Trazado 2042" d="M277.745,124.243a1.489,1.489,0,0,1-.641-.661,2.381,2.381,0,0,1-.225-1.089,2.04,2.04,0,0,1,.484-1.48,2.152,2.152,0,0,1,2.752,0,2.026,2.026,0,0,1,.486,1.471,2.4,2.4,0,0,1-.225,1.095,1.487,1.487,0,0,1-.641.662,2.365,2.365,0,0,1-1.991,0m1.4-.732a.657.657,0,0,0,.246-.35,2.085,2.085,0,0,0,.085-.664,2.164,2.164,0,0,0-.085-.676.655.655,0,0,0-.248-.356.841.841,0,0,0-.812,0,.653.653,0,0,0-.247.35,2.1,2.1,0,0,0-.085.668,2.143,2.143,0,0,0,.085.675.658.658,0,0,0,.246.354.848.848,0,0,0,.816,0" transform="translate(-267.99 -118.755)" fill="#29aee9"/>
  <path id="Trazado_2043" data-name="Trazado 2043" d="M345.683,120.683h.91l.087.492h.052a1.007,1.007,0,0,1,.418-.41,1.279,1.279,0,0,1,.593-.134,1.567,1.567,0,0,1,.307.028v1.007a1.912,1.912,0,0,0-.376-.031,1.332,1.332,0,0,0-.5.1.873.873,0,0,0-.377.268v2.5h-1.116Z" transform="translate(-332.625 -118.863)" fill="#29aee9"/>
  <path id="Trazado_2044" data-name="Trazado 2044" d="M390.626,120.669a1.067,1.067,0,0,1,.568.5,2.05,2.05,0,0,1,.185.95v2.266h-.92l-.077-.377h-.052a1.009,1.009,0,0,1-.429.336,1.632,1.632,0,0,1-1.245-.028.994.994,0,0,1-.427-.387,1.114,1.114,0,0,1-.148-.58,1.015,1.015,0,0,1,.382-.847,2.184,2.184,0,0,1,1.2-.352l.62-.052v-.049a.843.843,0,0,0-.085-.415.478.478,0,0,0-.272-.214,1.615,1.615,0,0,0-.511-.065,3.749,3.749,0,0,0-.511.038,3.3,3.3,0,0,0-.525.115v-.837a4.143,4.143,0,0,1,.6-.119,5.041,5.041,0,0,1,.631-.042,2.757,2.757,0,0,1,1.007.153m-.62,2.958a.773.773,0,0,0,.282-.183v-.715l-.509.038a.805.805,0,0,0-.457.145.416.416,0,0,0-.143.336.405.405,0,0,0,.129.324.56.56,0,0,0,.376.112.925.925,0,0,0,.321-.057" transform="translate(-372.454 -118.755)" fill="#29aee9"/>
  <path id="Trazado_2045" data-name="Trazado 2045" d="M134.454,232.916H137v13.469h-3.943v-8.892l-2.864,1.94V235.8Z" transform="translate(-130.194 -224.344)" fill="#29aee9"/>
  <path id="Trazado_2046" data-name="Trazado 2046" d="M275.4,238.633a3.609,3.609,0,0,1,.512,1.958,3.518,3.518,0,0,1-.63,2.058,4.148,4.148,0,0,1-1.908,1.428,8.323,8.323,0,0,1-3.136.521,9.811,9.811,0,0,1-3.236-.453,3.98,3.98,0,0,1-1.885-1.242,3.026,3.026,0,0,1-.018-3.612,4.114,4.114,0,0,1,1.722-1.283,3.971,3.971,0,0,1-1.514-1.441,3.752,3.752,0,0,1-.462-1.867,3.388,3.388,0,0,1,.625-2.03,4.044,4.044,0,0,1,1.89-1.36,8.665,8.665,0,0,1,3.113-.489,8.236,8.236,0,0,1,2.751.408,3.76,3.76,0,0,1,1.749,1.174,2.865,2.865,0,0,1,.6,1.826,3.2,3.2,0,0,1-1.931,2.964,4.26,4.26,0,0,1,1.754,1.441m-3.123,2.175a1.054,1.054,0,0,0-.236-.693,2.224,2.224,0,0,0-.843-.544,12.588,12.588,0,0,0-1.767-.548l-.172-.045a2.225,2.225,0,0,0-.829.752,1.677,1.677,0,0,0-.267.888,1.119,1.119,0,0,0,.512.988,2.855,2.855,0,0,0,1.573.344q2.03,0,2.03-1.142M269,233.77a.907.907,0,0,0-.467.784,1.03,1.03,0,0,0,.195.639,2,2,0,0,0,.752.517,12.7,12.7,0,0,0,1.681.585,2.618,2.618,0,0,0,.8-.784,1.679,1.679,0,0,0,.249-.884.972.972,0,0,0-.449-.861,2.427,2.427,0,0,0-1.337-.3,2.66,2.66,0,0,0-1.427.3" transform="translate(-256.374 -222.375)" fill="#29aee9"/>
  <path id="Trazado_2047" data-name="Trazado 2047" d="M159.98,519.526l-7.341-7.573a1.354,1.354,0,0,1,1.089-2.273H168.41a1.354,1.354,0,0,1,1.089,2.273l-7.341,7.573a1.542,1.542,0,0,1-2.179,0" transform="translate(-150.923 -484.336)" fill="#29aee9"/>
</svg>
