<svg id="Grupo_16633" data-name="Grupo 16633" xmlns="http://www.w3.org/2000/svg" width="18.26" height="35.64" viewBox="0 0 18.26 35.64">
  <path id="Trazado_2002" data-name="Trazado 2002" d="M149.846,121.021a1.077,1.077,0,0,1,.573.508,2.069,2.069,0,0,1,.186.957v2.284h-.928l-.077-.379h-.053a1.016,1.016,0,0,1-.432.339,1.644,1.644,0,0,1-1.254-.028,1,1,0,0,1-.43-.39,1.122,1.122,0,0,1-.149-.585,1.023,1.023,0,0,1,.385-.854,2.2,2.2,0,0,1,1.214-.355l.625-.053v-.049a.849.849,0,0,0-.086-.418.482.482,0,0,0-.274-.216,1.629,1.629,0,0,0-.515-.065,3.784,3.784,0,0,0-.515.039,3.337,3.337,0,0,0-.529.116v-.843a4.186,4.186,0,0,1,.608-.119,5.081,5.081,0,0,1,.636-.042,2.781,2.781,0,0,1,1.015.155M149.221,124a.779.779,0,0,0,.285-.184v-.72l-.513.039a.812.812,0,0,0-.46.146.419.419,0,0,0-.144.339.408.408,0,0,0,.13.327.564.564,0,0,0,.379.112.933.933,0,0,0,.323-.058" transform="translate(-146.996 -119.092)" fill="#29aee9"/>
  <path id="Trazado_2003" data-name="Trazado 2003" d="M212.035,91.538h1.124v2.221h.053a1.316,1.316,0,0,1,.464-.332,1.5,1.5,0,0,1,.594-.114,1.2,1.2,0,0,1,.913.365,1.626,1.626,0,0,1,.344,1.145v2.393H214.4V94.9a.673.673,0,0,0-.137-.478.54.54,0,0,0-.4-.141.991.991,0,0,0-.388.081.783.783,0,0,0-.314.235v2.621h-1.124Z" transform="translate(-207.832 -91.538)" fill="#29aee9"/>
  <path id="Trazado_2004" data-name="Trazado 2004" d="M277.545,124.623a1.5,1.5,0,0,1-.647-.666,2.4,2.4,0,0,1-.227-1.1,2.056,2.056,0,0,1,.489-1.492,2.168,2.168,0,0,1,2.774,0,2.042,2.042,0,0,1,.49,1.483,2.42,2.42,0,0,1-.227,1.1,1.5,1.5,0,0,1-.646.668,2.384,2.384,0,0,1-2.006,0m1.414-.738a.662.662,0,0,0,.248-.353,2.1,2.1,0,0,0,.086-.669,2.181,2.181,0,0,0-.086-.682.659.659,0,0,0-.249-.358.848.848,0,0,0-.819,0,.658.658,0,0,0-.249.353,2.116,2.116,0,0,0-.086.673,2.163,2.163,0,0,0,.086.68.663.663,0,0,0,.248.357.854.854,0,0,0,.822,0" transform="translate(-268.558 -119.093)" fill="#29aee9"/>
  <path id="Trazado_2005" data-name="Trazado 2005" d="M346.132,121.036h.917l.088.5h.053a1.015,1.015,0,0,1,.422-.413,1.289,1.289,0,0,1,.6-.135,1.585,1.585,0,0,1,.309.028v1.015a1.935,1.935,0,0,0-.38-.032,1.342,1.342,0,0,0-.5.1.881.881,0,0,0-.379.271v2.516h-1.124Z" transform="translate(-333.816 -119.202)" fill="#29aee9"/>
  <path id="Trazado_2006" data-name="Trazado 2006" d="M391.5,121.021a1.076,1.076,0,0,1,.573.508,2.068,2.068,0,0,1,.186.957v2.284h-.928l-.077-.379H391.2a1.016,1.016,0,0,1-.432.339,1.644,1.644,0,0,1-1.254-.028,1,1,0,0,1-.43-.39,1.122,1.122,0,0,1-.149-.585,1.023,1.023,0,0,1,.385-.854,2.2,2.2,0,0,1,1.214-.355l.625-.053v-.049a.849.849,0,0,0-.086-.418.482.482,0,0,0-.274-.216,1.629,1.629,0,0,0-.515-.065,3.785,3.785,0,0,0-.515.039,3.338,3.338,0,0,0-.529.116v-.843a4.184,4.184,0,0,1,.608-.119,5.08,5.08,0,0,1,.636-.042,2.781,2.781,0,0,1,1.015.155M390.872,124a.779.779,0,0,0,.285-.184v-.72l-.513.039a.812.812,0,0,0-.46.146.419.419,0,0,0-.144.339.408.408,0,0,0,.13.327.564.564,0,0,0,.379.112.932.932,0,0,0,.323-.058" transform="translate(-374.028 -119.092)" fill="#29aee9"/>
  <path id="Trazado_2007" data-name="Trazado 2007" d="M146.858,232.014h2.567V245.59h-3.974v-8.962l-2.887,1.955V234.92Z" transform="translate(-142.565 -223.515)" fill="#29aee9"/>
  <path id="Trazado_2008" data-name="Trazado 2008" d="M292.88,240.351V243.6h-9.565v-2.119l3.645-4.321a9.026,9.026,0,0,0,1.092-1.558,2.621,2.621,0,0,0,.324-1.183,1.146,1.146,0,0,0-.507-1.023,3.157,3.157,0,0,0-1.686-.338,9.391,9.391,0,0,0-1.6.142,7.756,7.756,0,0,0-1.439.379V230.4a10.039,10.039,0,0,1,1.644-.356,12.9,12.9,0,0,1,1.845-.146,7.346,7.346,0,0,1,4.253,1,3.571,3.571,0,0,1,1.4,3.12,5.309,5.309,0,0,1-.425,2.06,8.071,8.071,0,0,1-1.43,2.161l-1.864,2.11Z" transform="translate(-274.637 -221.529)" fill="#29aee9"/>
  <path id="Trazado_2009" data-name="Trazado 2009" d="M158.649,519l-7.4-7.633a1.365,1.365,0,0,1,1.1-2.291h14.8a1.365,1.365,0,0,1,1.1,2.291l-7.4,7.633a1.554,1.554,0,0,1-2.2,0" transform="translate(-150.366 -483.817)" fill="#29aee9"/>
</svg>
