<svg id="american-express" xmlns="http://www.w3.org/2000/svg" xmlns:xlink="http://www.w3.org/1999/xlink" width="23.113" height="23.06" viewBox="0 0 23.113 23.06">
  <defs>
    <radialGradient id="radial-gradient" cx="0.175" cy="0.175" r="0.935" gradientUnits="objectBoundingBox">
      <stop offset="0" stop-color="#9dd5f6"/>
      <stop offset="0.071" stop-color="#98d3f5"/>
      <stop offset="0.157" stop-color="#89cef3"/>
      <stop offset="0.252" stop-color="#70c6ef"/>
      <stop offset="0.351" stop-color="#4ebbea"/>
      <stop offset="0.455" stop-color="#23ade3"/>
      <stop offset="0.5" stop-color="#0da6e0"/>
      <stop offset="1" stop-color="#2e77bc"/>
    </radialGradient>
  </defs>
  <path id="Trazado_1504" data-name="Trazado 1504" d="M22.977,0H0V23.06H22.977V15.45a.871.871,0,0,0,.136-.507.791.791,0,0,0-.136-.506" fill="url(#radial-gradient)"/>
  <path id="Trazado_1505" data-name="Trazado 1505" d="M2.072,99.092,1.63,98.014l-.439,1.077m10.619-.429a.6.6,0,0,1-.319.055H10.7v-.6h.8a.66.66,0,0,1,.306.049.246.246,0,0,1,.135.239A.277.277,0,0,1,11.809,98.663Zm5.6.429-.447-1.077-.444,1.077ZM6.973,100.258H6.311l0-2.116-.936,2.116H4.8L3.866,98.14v2.118H2.552l-.248-.6H.96l-.251.6h-.7l1.156-2.7h.959l1.1,2.558V97.556H4.275l.845,1.833L5.9,97.556H6.972v2.7Zm2.639,0H7.454v-2.7H9.611v.562H8.1v.487H9.575v.554H8.1V99.7H9.611Zm3.042-1.975A.761.761,0,0,1,12.2,99a.752.752,0,0,1,.319.227.776.776,0,0,1,.107.5v.531h-.651l0-.341a.812.812,0,0,0-.1-.526c-.095-.1-.238-.116-.471-.116H10.7v.983H10.06v-2.7h1.486a1.524,1.524,0,0,1,.782.13A.631.631,0,0,1,12.653,98.283Zm1.033,1.975h-.659v-2.7h.659Zm7.645,0h-.915L19.193,98.23v2.028H17.877l-.251-.6H16.285l-.244.6h-.755a1.356,1.356,0,0,1-.936-.3A1.359,1.359,0,0,1,14,98.927a1.438,1.438,0,0,1,.348-1.056,1.308,1.308,0,0,1,.98-.315h.625v.579h-.612a.624.624,0,0,0-.5.16.892.892,0,0,0-.186.612.941.941,0,0,0,.178.635.624.624,0,0,0,.45.139h.29l.91-2.125h.967l1.094,2.556V97.556h.984l1.135,1.882V97.556h.662v2.7ZM0,100.788H1.1l.249-.6h.557l.249.6H4.328v-.459l.194.46H5.649l.194-.468v.465h5.4l0-.985h.1c.073,0,.095.009.095.13v.855h2.79v-.229a2.211,2.211,0,0,0,1.036.229h1.174l.251-.6h.557l.246.6h2.262v-.57l.342.57h1.813V97.02H20.113v.445l-.251-.445H18.021v.445l-.231-.445H15.3a2.227,2.227,0,0,0-1.077.22v-.22H12.509v.22a1.063,1.063,0,0,0-.729-.22H5.511l-.421.973-.432-.973H2.683v.445l-.217-.445H.782L0,98.812v1.976Z" transform="translate(0 -89.113)" fill="#fff"/>
  <path id="Trazado_1506" data-name="Trazado 1506" d="M74.478,155.182H73.3a.445.445,0,0,0-.262.049.21.21,0,0,0-.095.195.2.2,0,0,0,.141.2.737.737,0,0,0,.249.031l.35.01a1.02,1.02,0,0,1,.733.218.382.382,0,0,1,.06.067m0,1.011a1.007,1.007,0,0,1-.876.346H72.355v-.579H73.6a.37.37,0,0,0,.262-.067.238.238,0,0,0,.077-.176.222.222,0,0,0-.079-.178.325.325,0,0,0-.227-.06c-.606-.02-1.363.019-1.363-.836,0-.392.249-.8.927-.8h1.287v-.538h-1.2a1.346,1.346,0,0,0-.808.221v-.221H70.708a1.224,1.224,0,0,0-.772.221v-.221H66.779v.221a1.684,1.684,0,0,0-.871-.221H63.826v.221a1.474,1.474,0,0,0-.91-.221H60.585l-.533.577-.5-.577H56.07v3.771h3.415l.549-.586.517.586,2.106,0v-.887h.207a2.2,2.2,0,0,0,.9-.133v1.018H65.5v-.983h.084c.107,0,.117,0,.117.112v.871h5.276a1.505,1.505,0,0,0,.879-.241v.241h1.673a2.246,2.246,0,0,0,.947-.174v-.7Zm-2.577-1.08a.753.753,0,0,1,.193.573c0,.581-.363.852-1.015.852H69.822v-.579h1.253a.382.382,0,0,0,.264-.067.241.241,0,0,0,.077-.176.229.229,0,0,0-.079-.178.338.338,0,0,0-.23-.06c-.6-.02-1.36.019-1.36-.836,0-.392.246-.8.923-.8h1.295v.575H70.78a.435.435,0,0,0-.259.049.227.227,0,0,0,.044.4.743.743,0,0,0,.251.031l.348.01A1.03,1.03,0,0,1,71.9,155.884Zm-5.827-.167a.617.617,0,0,1-.319.055h-.785v-.607h.8a.635.635,0,0,1,.308.049.256.256,0,0,1,.134.243A.292.292,0,0,1,66.074,155.717Zm.39.337a.7.7,0,0,1,.316.227.785.785,0,0,1,.107.493v.535h-.649v-.338c0-.162.015-.4-.1-.529-.095-.1-.238-.12-.473-.12h-.69v.987h-.649v-2.7h1.491a1.6,1.6,0,0,1,.777.128.633.633,0,0,1,.332.6A.757.757,0,0,1,66.464,156.054Zm.816-1.447h2.156v.559H67.922v.491H69.4v.552H67.922v.538l1.513,0v.561H67.279Zm-4.357,1.247h-.834v-.688h.842c.233,0,.4.1.4.332S63.171,155.854,62.923,155.854Zm-1.478,1.21-.992-1.1.992-1.066Zm-2.561-.318H57.3v-.538h1.418v-.552H57.3v-.491h1.619l.707.787Zm5.134-1.249c0,.751-.56.905-1.125.905h-.806v.906H60.832l-.8-.895-.826.895H56.653v-2.7h2.6l.795.886.821-.886H62.93C63.443,154.607,64.018,154.749,64.018,155.5Z" transform="translate(-51.501 -141.514)" fill="#fff"/>
</svg>
