<svg id="visa" xmlns="http://www.w3.org/2000/svg" width="52.522" height="15.923" viewBox="0 0 52.522 15.923">
  <path id="Trazado_1468" data-name="Trazado 1468" d="M184.8,195.406l2.668-15.006h4.168l-2.584,15.006Z" transform="translate(-165.542 -179.9)" fill="#3c58bf"/>
  <path id="Trazado_1469" data-name="Trazado 1469" d="M184.8,195.406l3.418-15.006h3.418l-2.584,15.006Z" transform="translate(-165.542 -179.9)" fill="#293688"/>
  <path id="Trazado_1470" data-name="Trazado 1470" d="M260.755,176.267a10.574,10.574,0,0,0-3.835-.667c-4.168,0-7.17,2.084-7.17,5.085,0,2.251,2.084,3.418,3.752,4.169s2.168,1.251,2.168,1.917c0,1-1.334,1.5-2.5,1.5a9.061,9.061,0,0,1-4-.834l-.584-.25L248,190.606a13.519,13.519,0,0,0,4.752.834c4.419,0,7.336-2.084,7.336-5.252,0-1.751-1.084-3.085-3.585-4.168-1.5-.75-2.418-1.167-2.418-1.917,0-.667.75-1.334,2.418-1.334a7.647,7.647,0,0,1,3.168.584l.417.167.667-3.251Z" transform="translate(-222.156 -175.6)" fill="#3c58bf"/>
  <path id="Trazado_1471" data-name="Trazado 1471" d="M260.755,176.267a10.574,10.574,0,0,0-3.835-.667c-4.168,0-6.419,2.084-6.419,5.085,0,2.251,1.334,3.418,3,4.169s2.168,1.251,2.168,1.917c0,1-1.334,1.5-2.5,1.5a9.061,9.061,0,0,1-4-.834l-.584-.25L248,190.606a13.519,13.519,0,0,0,4.752.834c4.419,0,7.336-2.084,7.336-5.252,0-1.751-1.084-3.085-3.585-4.168-1.5-.75-2.418-1.167-2.418-1.917,0-.667.75-1.334,2.418-1.334a7.647,7.647,0,0,1,3.168.584l.417.167.667-3.251Z" transform="translate(-222.156 -175.6)" fill="#293688"/>
  <path id="Trazado_1472" data-name="Trazado 1472" d="M366.82,180.4c-1,0-1.751.083-2.168,1.084L358.4,195.406h4.5l.834-2.5h5.336l.5,2.5h4l-3.5-15.006Zm-1.918,10c.25-.75,1.667-4.419,1.667-4.419s.334-.917.583-1.5l.25,1.417s.834,3.752,1,4.585h-3.5Z" transform="translate(-321.051 -179.9)" fill="#3c58bf"/>
  <path id="Trazado_1473" data-name="Trazado 1473" d="M367.821,180.4c-1,0-1.751.083-2.168,1.084L358.4,195.406h4.5l.834-2.5h5.336l.5,2.5h4l-3.5-15.006Zm-2.918,10c.333-.834,1.667-4.419,1.667-4.419s.334-.917.583-1.5l.25,1.417s.834,3.752,1,4.585h-3.5Z" transform="translate(-321.051 -179.9)" fill="#293688"/>
  <path id="Trazado_1474" data-name="Trazado 1474" d="M57.453,191.621l-.417-2.168a12.085,12.085,0,0,0-5.836-6.586l3.752,13.339h4.5L66.206,181.2H61.7Z" transform="translate(-45.864 -180.616)" fill="#3c58bf"/>
  <path id="Trazado_1475" data-name="Trazado 1475" d="M57.453,191.621l-.417-2.168a12.085,12.085,0,0,0-5.836-6.586l3.752,13.339h4.5L66.206,181.2H62.538Z" transform="translate(-45.864 -180.616)" fill="#293688"/>
  <path id="Trazado_1476" data-name="Trazado 1476" d="M0,180.4l.75.167c5.336,1.251,9,4.419,10.421,8.17l-1.5-7.086c-.25-1-1-1.251-1.917-1.251Z" transform="translate(0 -179.9)" fill="#ffbc00"/>
  <path id="Trazado_1477" data-name="Trazado 1477" d="M0,180.4H0c5.336,1.251,9.754,4.5,11.171,8.253l-1.417-5.919a2.035,2.035,0,0,0-2-1.584Z" transform="translate(0 -179.9)" fill="#f7981d"/>
  <path id="Trazado_1478" data-name="Trazado 1478" d="M0,180.4H0c5.336,1.251,9.754,4.5,11.171,8.253l-1-3.251a2.94,2.94,0,0,0-1.751-2.418Z" transform="translate(0 -179.9)" fill="#ed7c00"/>
  <g id="Grupo_1602" data-name="Grupo 1602" transform="translate(5.419 2.168)">
    <path id="Trazado_1479" data-name="Trazado 1479" d="M62.338,204.737,59.5,201.9l-1.334,3.168-.333-2.084A12.085,12.085,0,0,0,52,196.4l3.752,13.339h4.5Z" transform="translate(-52 -196.4)" fill="#051244"/>
    <path id="Trazado_1480" data-name="Trazado 1480" d="M189.052,292.868l-3.585-3.668-.667,3.668Z" transform="translate(-170.961 -279.529)" fill="#051244"/>
    <path id="Trazado_1481" data-name="Trazado 1481" d="M255.253,274.8h0c.333.333.5.584.417.917,0,1-1.334,1.5-2.5,1.5a9.061,9.061,0,0,1-4-.834l-.584-.25L248,279.552a13.519,13.519,0,0,0,4.752.834c2.668,0,4.835-.75,6.086-2.084Z" transform="translate(-227.575 -266.63)" fill="#051244"/>
    <path id="Trazado_1482" data-name="Trazado 1482" d="M364,230.521h3.918l.834-2.5h5.336l.5,2.5h4l-1.417-6.086-5-4.835.25,1.334s.834,3.752,1,4.585h-3.5c.334-.834,1.667-4.419,1.667-4.419s.333-.917.584-1.5" transform="translate(-331.486 -217.182)" fill="#051244"/>
  </g>
</svg>
