<svg id="american-express" xmlns="http://www.w3.org/2000/svg" xmlns:xlink="http://www.w3.org/1999/xlink" width="25.787" height="25.728" viewBox="0 0 25.787 25.728">
  <defs>
    <radialGradient id="radial-gradient" cx="0.175" cy="0.175" r="0.935" gradientUnits="objectBoundingBox">
      <stop offset="0" stop-color="#9dd5f6"/>
      <stop offset="0.071" stop-color="#98d3f5"/>
      <stop offset="0.157" stop-color="#89cef3"/>
      <stop offset="0.252" stop-color="#70c6ef"/>
      <stop offset="0.351" stop-color="#4ebbea"/>
      <stop offset="0.455" stop-color="#23ade3"/>
      <stop offset="0.5" stop-color="#0da6e0"/>
      <stop offset="1" stop-color="#2e77bc"/>
    </radialGradient>
  </defs>
  <path id="Trazado_1504" data-name="Trazado 1504" d="M25.636,0H0V25.728H25.636v-8.49a.972.972,0,0,0,.152-.566.883.883,0,0,0-.152-.565" fill="url(#radial-gradient)"/>
  <path id="Trazado_1505" data-name="Trazado 1505" d="M2.311,99.331l-.493-1.2-.49,1.2m11.847-.478a.67.67,0,0,1-.356.062h-.876v-.669h.887a.736.736,0,0,1,.342.055.275.275,0,0,1,.151.266A.309.309,0,0,1,13.176,98.853Zm6.244.478-.5-1.2-.5,1.2Zm-11.64,1.3H7.041l0-2.361-1.045,2.361H5.361L4.313,98.269v2.363H2.848l-.276-.673h-1.5l-.28.673H.008L1.3,97.618h1.07l1.226,2.854V97.618H4.77l.943,2.045.866-2.045h1.2v3.014Zm2.944,0H8.317V97.618h2.407v.627H9.037v.544h1.646v.618H9.037v.6h1.687Zm3.394-2.2a.849.849,0,0,1-.507.8.839.839,0,0,1,.356.254.866.866,0,0,1,.119.553v.592h-.726l0-.38a.906.906,0,0,0-.114-.587c-.105-.106-.265-.129-.526-.129h-.774v1.1h-.72V97.618h1.658a1.7,1.7,0,0,1,.873.145A.7.7,0,0,1,14.118,98.429Zm1.153,2.2h-.736V97.618h.736Zm8.529,0H22.779L21.413,98.37v2.262H19.946l-.28-.673h-1.5l-.272.673h-.843a1.512,1.512,0,0,1-1.045-.334,1.516,1.516,0,0,1-.385-1.151,1.6,1.6,0,0,1,.388-1.178,1.46,1.46,0,0,1,1.094-.352h.7v.646h-.683a.7.7,0,0,0-.555.178,1,1,0,0,0-.207.683,1.049,1.049,0,0,0,.2.708.7.7,0,0,0,.5.155h.324l1.016-2.37h1.079l1.22,2.851v-2.85h1.1l1.267,2.1v-2.1H23.8v3.014ZM0,101.224H1.231l.277-.669h.621l.277.669H4.829v-.512l.216.514H6.3l.216-.522v.519h6.02l0-1.1h.116c.082,0,.105.01.105.145v.954h3.113v-.255a2.467,2.467,0,0,0,1.156.255h1.31l.28-.669h.621l.275.669h2.524v-.636l.382.636h2.023v-4.2h-2v.5l-.28-.5H20.106v.5l-.257-.5H17.074a2.485,2.485,0,0,0-1.2.246V97.02H13.957v.246a1.186,1.186,0,0,0-.814-.246H6.148l-.469,1.086L5.2,97.02h-2.2v.5l-.242-.5H.873l-.873,2v2.2Z" transform="translate(0 -88.199)" fill="#fff"/>
  <path id="Trazado_1506" data-name="Trazado 1506" d="M76.608,155.311H75.294a.5.5,0,0,0-.292.055.234.234,0,0,0-.105.217.228.228,0,0,0,.157.225.821.821,0,0,0,.277.035l.39.011a1.138,1.138,0,0,1,.817.243.423.423,0,0,1,.067.075m0,1.128a1.124,1.124,0,0,1-.977.385H74.239v-.646h1.386a.412.412,0,0,0,.292-.075.266.266,0,0,0,.085-.2.247.247,0,0,0-.088-.2.363.363,0,0,0-.254-.067c-.676-.023-1.52.021-1.52-.933,0-.437.277-.9,1.034-.9h1.436v-.6H75.276a1.5,1.5,0,0,0-.9.246v-.246H72.4a1.366,1.366,0,0,0-.861.246v-.246H68.018v.246a1.879,1.879,0,0,0-.972-.246H64.723v.246a1.645,1.645,0,0,0-1.016-.246h-2.6l-.595.644-.557-.644H56.07v4.207h3.811l.613-.654.577.654,2.349,0v-.989h.231a2.455,2.455,0,0,0,1-.148v1.136h1.938v-1.1h.094c.119,0,.131,0,.131.125v.972H72.7a1.679,1.679,0,0,0,.981-.269v.269h1.867a2.507,2.507,0,0,0,1.057-.194V157.3Zm-2.875-1.2a.841.841,0,0,1,.215.639c0,.648-.406.951-1.132.951h-1.4v-.646h1.4a.426.426,0,0,0,.295-.075.269.269,0,0,0,.085-.2.256.256,0,0,0-.088-.2.377.377,0,0,0-.256-.067c-.674-.023-1.518.021-1.518-.933,0-.437.275-.9,1.03-.9H73.8v.642H72.482a.486.486,0,0,0-.289.055.253.253,0,0,0,.049.442.829.829,0,0,0,.28.035l.388.011A1.149,1.149,0,0,1,73.733,156.094Zm-6.5-.186a.688.688,0,0,1-.355.062H66v-.677h.887a.708.708,0,0,1,.344.055.286.286,0,0,1,.149.271A.326.326,0,0,1,67.232,155.908Zm.435.376a.784.784,0,0,1,.353.253.876.876,0,0,1,.119.55v.6h-.724v-.377c0-.181.017-.45-.116-.59-.105-.108-.265-.134-.528-.134H66v1.1h-.724v-3.015H66.94a1.785,1.785,0,0,1,.867.143.706.706,0,0,1,.37.669A.845.845,0,0,1,67.666,156.283Zm.91-1.614h2.4v.624H69.294v.548h1.646v.616H69.294v.6l1.688,0v.626h-2.4Zm-4.861,1.391h-.931v-.767h.939c.26,0,.441.106.441.37S63.992,156.06,63.716,156.06Zm-1.649,1.35-1.107-1.228,1.107-1.189Zm-2.857-.355H57.438v-.6H59.02v-.616H57.438v-.548h1.807l.788.878Zm5.728-1.394c0,.837-.625,1.01-1.255,1.01h-.9v1.011h-1.4l-.887-1-.922,1H56.72v-3.015h2.9l.887.988.916-.988h2.3C64.3,154.669,64.938,154.827,64.938,155.662Z" transform="translate(-50.972 -140.061)" fill="#fff"/>
</svg>
