<svg xmlns="http://www.w3.org/2000/svg" width="34.94" height="27.02" viewBox="0 0 34.94 27.02">
  <g id="layer1" transform="translate(0)">
    <g id="g13">
      <g id="g15" transform="translate(1.77 22.955)">
        <path id="XMLID_1775_" d="M2953.967,2902.739v-1.793a1.053,1.053,0,0,0-1.139-1.136,1.186,1.186,0,0,0-1.02.508,1.049,1.049,0,0,0-.959-.508.968.968,0,0,0-.84.419v-.359h-.63v2.869h.63v-1.584c0-.509.27-.747.69-.747s.63.269.63.747v1.584h.63v-1.584a.662.662,0,0,1,.69-.747c.42,0,.63.269.63.747v1.584Zm9.328-2.869h-1.02V2899h-.629v.867h-.57v.568h.57v1.315c0,.658.269,1.047.99,1.047a1.682,1.682,0,0,0,.78-.209l-.18-.538a1,1,0,0,1-.54.15c-.3,0-.42-.18-.42-.479v-1.285h1.02Zm5.338-.06a.846.846,0,0,0-.75.419v-.359h-.63v2.869h.63v-1.614c0-.479.21-.747.6-.747a1.741,1.741,0,0,1,.389.06l.181-.6a2.009,2.009,0,0,0-.42-.03Zm-8.068.3a2.064,2.064,0,0,0-1.17-.3c-.72,0-1.2.358-1.2.927,0,.478.36.747.99.836l.3.031c.329.059.51.149.51.3,0,.209-.24.358-.66.358a1.667,1.667,0,0,1-.96-.3l-.3.478a2.124,2.124,0,0,0,1.229.359c.84,0,1.32-.389,1.32-.927,0-.507-.39-.777-.99-.867l-.3-.03c-.27-.03-.48-.09-.48-.269,0-.21.21-.329.54-.329a2.157,2.157,0,0,1,.9.24Zm16.735-.3a.844.844,0,0,0-.75.419v-.359h-.63v2.869h.63v-1.614c0-.479.21-.747.6-.747a1.755,1.755,0,0,1,.39.06l.18-.6a2.005,2.005,0,0,0-.42-.03Zm-8.038,1.494a1.439,1.439,0,0,0,1.53,1.495,1.5,1.5,0,0,0,1.019-.329l-.3-.508a1.219,1.219,0,0,1-.75.268.85.85,0,0,1-.87-.926.884.884,0,0,1,.87-.927,1.217,1.217,0,0,1,.75.269l.3-.508a1.5,1.5,0,0,0-1.019-.329,1.438,1.438,0,0,0-1.53,1.494Zm5.818,0v-1.434h-.63v.359a1.083,1.083,0,0,0-.9-.419,1.5,1.5,0,0,0,0,2.989,1.009,1.009,0,0,0,.9-.419v.359h.63Zm-2.309,0a.871.871,0,1,1,1.739,0,.871.871,0,1,1-1.739,0Zm-7.528-1.494a1.5,1.5,0,0,0,.03,2.989,1.836,1.836,0,0,0,1.169-.389l-.3-.448a1.44,1.44,0,0,1-.84.3.809.809,0,0,1-.87-.687h2.129v-.239a1.322,1.322,0,0,0-1.319-1.524Zm0,.538a.7.7,0,0,1,.72.687h-1.5a.758.758,0,0,1,.78-.687Zm15.626.956v-2.57h-.63v1.5a1.084,1.084,0,0,0-.9-.419,1.5,1.5,0,0,0,0,2.989,1.011,1.011,0,0,0,.9-.419v.359h.63Zm-2.309,0a.872.872,0,1,1,1.74,0,.872.872,0,1,1-1.74,0Zm-21.054,0v-1.434h-.631v.359a1.082,1.082,0,0,0-.9-.419,1.5,1.5,0,0,0,0,2.989,1.01,1.01,0,0,0,.9-.419v.359h.631Zm-2.34,0a.871.871,0,1,1,1.739,0,.871.871,0,1,1-1.739,0Z" transform="translate(-2949.378 -2898.734)"/>
      </g>
      <g id="XMLID_328_">
        <rect id="rect19" width="9.447" height="16.917" transform="translate(12.747 2.301)" fill="#ff5f00"/>
        <path id="XMLID_330_" d="M2912.081,2250.262a10.776,10.776,0,0,1,4.109-8.459,10.76,10.76,0,1,0,0,16.917A10.731,10.731,0,0,1,2912.081,2250.262Z" transform="translate(-2898.734 -2239.501)" fill="#eb001b"/>
        <path id="path22" d="M3416.622,2250.262a10.793,10.793,0,0,1-17.455,8.458,10.762,10.762,0,0,0,0-16.917,10.792,10.792,0,0,1,17.455,8.459Z" transform="translate(-3381.682 -2239.501)" fill="#f79e1b"/>
      </g>
    </g>
  </g>
</svg>
