<svg id="Grupo_1613" data-name="Grupo 1613" xmlns="http://www.w3.org/2000/svg" width="32.96" height="32.96" viewBox="0 0 32.96 32.96">
  <ellipse id="Elipse_32" data-name="Elipse 32" cx="16.48" cy="16.48" rx="16.48" ry="16.48" transform="translate(0)" fill="#fff"/>
  <g id="Grupo_1698" data-name="Grupo 1698" transform="translate(0.803 0.803)">
    <ellipse id="Elipse_33" data-name="Elipse 33" cx="15.677" cy="15.677" rx="15.677" ry="15.677" transform="translate(0 0)" fill="#ffd300"/>
    <g id="Grupo_1697" data-name="Grupo 1697" transform="translate(1.883 5.152)">
      <path id="Trazado_1507" data-name="Trazado 1507" d="M805.3,502.57a.5.5,0,0,0-.28-.009l-5.029,1.289-2.386-8.823a.5.5,0,0,0-.607-.352l-14.356,3.755a.5.5,0,0,0-.357.6l2.209,8.744-4.849,1.288a.507.507,0,0,0-.071.95l15.306,6.7a.5.5,0,0,0,.6-.154l10.071-13.206a.5.5,0,0,0-.248-.789Z" transform="translate(-778.068 -494.659)" fill="#fff"/>
      <g id="Grupo_1693" data-name="Grupo 1693" transform="translate(1.704 0.499)">
        <path id="Trazado_1508" data-name="Trazado 1508" d="M821.487,519.409l.008-.01-5.505,1.412-2.514-9.3-14.356,3.755,2.329,9.222-5.325,1.415.017.007-.016,0,15.306,6.7L821.509,519.4Z" transform="translate(-796.124 -511.513)" fill="#d40072" fill-rule="evenodd"/>
      </g>
      <path id="Trazado_1509" data-name="Trazado 1509" d="M765.313,585.805l0-.014-.063-.208a.563.563,0,0,0-.036-.091l-.123-.243a2.875,2.875,0,0,0-.321-.506,2.82,2.82,0,0,0-.4-.408l-.009-.007a3.53,3.53,0,0,0-1.022-.563,4.826,4.826,0,0,0-2.8.02,5.555,5.555,0,0,0-2.058.97,3.472,3.472,0,0,0-1.156,1.469q-.015.04-.029.081a2.524,2.524,0,0,0-.621-.484,3.33,3.33,0,0,0-1.481-.4,4.812,4.812,0,0,0-.859.023,6.945,6.945,0,0,0-.875.175,6.082,6.082,0,0,0-1.6.645q-.086.052-.17.107a.566.566,0,0,0-.193.135,3.691,3.691,0,0,0-.775.772,3.122,3.122,0,0,0-.614,1.506l-1.237-1.5a.564.564,0,0,0-.577-.187l-2.242.581a.564.564,0,0,0-.409.423l-.188.838a1.937,1.937,0,0,0-.384-.242,2.862,2.862,0,0,0-1.285-.245,6.082,6.082,0,0,0-1.613.233l-3.209.832a.564.564,0,0,0-.408.674l1.144,4.924a.564.564,0,0,0,.55.437.558.558,0,0,0,.142-.018l6.837-1.773a.565.565,0,0,0,.418-.476l.042-.339,1.451-.376.2.272a.565.565,0,0,0,.6.217l2.186-.567a.564.564,0,0,0,.395-.372c0-.015.009-.029.013-.044a4.836,4.836,0,0,0,2.178-.109,4.375,4.375,0,0,0,1.6-.749l0,0a.563.563,0,0,0,.465.083l1.4-.362a.564.564,0,0,0,.408-.672s.336-.273.6-.179a4.844,4.844,0,0,0,2.835-.016,5.52,5.52,0,0,0,2.052-.973,3.478,3.478,0,0,0,1.174-1.555A2.864,2.864,0,0,0,765.313,585.805Z" transform="translate(-738.529 -580.936)" fill="#fff"/>
      <g id="Grupo_1694" data-name="Grupo 1694" transform="translate(0.522 3.097)">
        <path id="Trazado_1510" data-name="Trazado 1510" d="M1392.612,601.229l-.063-.208-.129-.259a2.427,2.427,0,0,0-.269-.424,2.368,2.368,0,0,0-.337-.341,3.066,3.066,0,0,0-.887-.488,4.382,4.382,0,0,0-2.533.031,5.09,5.09,0,0,0-1.886.885,3.016,3.016,0,0,0-1.008,1.266,2.566,2.566,0,0,0-.1,1.422l.148.424.062.186.005.013a2.494,2.494,0,0,0,1.467,1.213,3.3,3.3,0,0,0,1.111.177,5.812,5.812,0,0,0,1.449-.2,5.051,5.051,0,0,0,1.88-.887,3.02,3.02,0,0,0,1.023-1.344A2.406,2.406,0,0,0,1392.612,601.229Zm-3.907-.294a1.258,1.258,0,0,1,.851.028,1.142,1.142,0,0,1,.54.545,1.687,1.687,0,0,1,.138,1.222,1.136,1.136,0,0,1-.922.8,1.062,1.062,0,0,1-1.366-.566,1.892,1.892,0,0,1-.044-1.478,1.2,1.2,0,0,1,.8-.552Z" transform="translate(-1366.727 -599.337)" fill="#004c99"/>
        <path id="Trazado_1511" data-name="Trazado 1511" d="M771.485,664.261l.26,1.1.98-.281a1.322,1.322,0,0,1-.3.516,1.594,1.594,0,0,1-.627.324c-.716.186-1.194.023-1.459-.5a1.921,1.921,0,0,1-.073-1.51,1.186,1.186,0,0,1,.8-.555,1,1,0,0,1,1.176.289l.039.055,2.266-.588-.067-.134a2.017,2.017,0,0,0-.834-.867,2.873,2.873,0,0,0-1.28-.339,4.338,4.338,0,0,0-.775.02,6.51,6.51,0,0,0-.815.163,5.621,5.621,0,0,0-1.478.594,3.392,3.392,0,0,0-1,.89,2.6,2.6,0,0,0-.466,2.216l.061.267.144.313q.042.083.09.161l-2.455-2.979-2.36.612-.445,1.979a1.747,1.747,0,0,0-.128-.346,1.428,1.428,0,0,0-.671-.66,2.409,2.409,0,0,0-1.082-.2,5.693,5.693,0,0,0-1.5.218l-3.3.856,1.189,5.114,2.385-.618-.363-1.535,1.033-.268a4.1,4.1,0,0,0,2.1-1.084l-.517,2.3,2.358-.612.09-.719,2.067-.536.421.586,2.4-.622-.838-1.017a2.6,2.6,0,0,0,.961.542,4.1,4.1,0,0,0,2.314-.012,3.465,3.465,0,0,0,1.818-1.031l.175.384,1.566-.406-.667-2.91Zm-5.553,2.693-1.4.363.287-1.962Zm-6.851.546-.263-1,.792-.21c.427-.115.747-.142.91.119a.556.556,0,0,1-.027.543,1.058,1.058,0,0,1-.562.325C759.722,667.344,759.081,667.5,759.081,667.5Z" transform="translate(-756.186 -659.915)" fill="#004c99"/>
      </g>
      <g id="Grupo_1695" data-name="Grupo 1695" transform="translate(8.684 10.391)">
        <path id="Trazado_1512" data-name="Trazado 1512" d="M1155,849.5a4.768,4.768,0,0,1,.308-.388,11.027,11.027,0,0,0,1.422-2.04c.123-.237.309-.608.411-.855a.176.176,0,0,0-.043-.208.29.29,0,0,0-.467-.024,6.429,6.429,0,0,0-2.13,3.183.48.48,0,0,1-.1.188c-.388.42-.779.837-1.171,1.253a.477.477,0,0,1-.126.094c-.035.018-.092.037-.116.021s-.032-.074-.04-.115a.16.16,0,0,1,.008-.068c.069-.254.123-.514.213-.761s.211-.471.319-.7c.027-.059.052-.127-.045-.13a.5.5,0,0,0-.541.267,1.734,1.734,0,0,1-.163.306c-.385.458-.77.916-1.173,1.358a2.019,2.019,0,0,1-.913.592c-.1.031-.164,0-.174-.108a.87.87,0,0,1,.015-.265,2.468,2.468,0,0,1,.625-1.167,1.228,1.228,0,0,1,.484-.332.232.232,0,0,1-.02.14c-.1.139-.212.27-.316.407a.489.489,0,0,0-.047.114c.045.012.1.044.133.032a1.41,1.41,0,0,0,.319-.13.919.919,0,0,0,.471-.643.253.253,0,0,0-.281-.325.4.4,0,0,0-.079.007,2.559,2.559,0,0,0-1.135.686,2.056,2.056,0,0,0-.207.252q-.585.692-1.174,1.382a2.479,2.479,0,0,1-.182.174c0-.031-.011-.045-.008-.056a4.3,4.3,0,0,1,.136-.463c.13-.318.276-.631.415-.946a.135.135,0,0,0-.025-.179.256.256,0,0,0-.35.008c-.116-.155-.257-.118-.393-.034a2.314,2.314,0,0,0-.355.251,4.457,4.457,0,0,0-1.142,1.721,1.13,1.13,0,0,0-.1.551.326.326,0,0,0,.509.245,1.042,1.042,0,0,0,.214-.19c.177-.247.343-.5.51-.755a.42.42,0,0,0,.034-.122l.048.02c.008.048.014.1.024.142a2.859,2.859,0,0,0,.083.377c.074.21.231.251.386.091.175-.18.334-.375.491-.571.135-.169.257-.35.393-.536.007.09.007.166.02.24.072.437.33.664.789.448a2.511,2.511,0,0,0,.438-.267,6.179,6.179,0,0,0,1.083-1.113c.064-.08.127-.162.208-.265-.02.113-.037.2-.05.281a.845.845,0,0,0,.031.43.431.431,0,0,0,.483.308.724.724,0,0,0,.488-.239c.246-.281.481-.571.717-.86.068-.083.126-.174.183-.254.04.139.07.277.119.408a.466.466,0,0,0,.735.3,1.31,1.31,0,0,0,.364-.281,15.156,15.156,0,0,0,1.55-2.17c.055-.088.036-.142-.062-.214l-.066.082c-.352.43-.7.864-1.058,1.288a3.89,3.89,0,0,1-.763.733c-.144.1-.222.068-.269-.1A.58.58,0,0,1,1155,849.5Zm1.481-2.911a6.893,6.893,0,0,1-1.255,2.1A8.525,8.525,0,0,1,1156.476,846.586Zm-8.524,5.485-.035-.017a.625.625,0,0,1,.021-.129,3.541,3.541,0,0,1,.935-1.419,1.608,1.608,0,0,1,.228-.146l.026.034A16.14,16.14,0,0,1,1147.951,852.071Z" transform="translate(-1143.844 -845.876)" fill="#890c6c"/>
        <path id="Trazado_1513" data-name="Trazado 1513" d="M1035.989,914.779a1.257,1.257,0,0,0-.137-.207.3.3,0,0,0-.158-.067,1.139,1.139,0,0,0-.255-.018,3.73,3.73,0,0,0-.98.228l-.278.092c.02-.045.025-.061.034-.074q.31-.487.621-.973c.1-.155.1-.165-.068-.274.1-.04.189-.08.28-.109q.983-.308,1.967-.612c.164-.051.329-.1.493-.148a.269.269,0,0,0,.07-.052.294.294,0,0,0-.057-.066,1.523,1.523,0,0,0-.742-.25,3.856,3.856,0,0,0-1.079.127,12.2,12.2,0,0,0-2.1.754c-.15.067-.3.138-.458.213l.066-.158a.877.877,0,0,0-.177.049c-.183.1-.367.2-.542.313a2.8,2.8,0,0,0-.378.3.2.2,0,0,0-.011.3.326.326,0,0,0,.338.13,5.568,5.568,0,0,0,.683-.191c.4-.142.8-.3,1.193-.452a1.2,1.2,0,0,1,.123-.033l.009.019c-.062.077-.13.15-.186.231-.269.386-.537.773-.8,1.163a.557.557,0,0,1-.253.214,4.522,4.522,0,0,0-.45.224.154.154,0,0,0-.041.259,1.3,1.3,0,0,0,.138.153.138.138,0,0,1,.026.2,2.694,2.694,0,0,0-.353,1.338.308.308,0,0,0,.049.193.647.647,0,0,0,.447.163c.015-.128.018-.244.043-.356a2.559,2.559,0,0,1,.109-.343c.126-.334.261-.665.381-1a.6.6,0,0,1,.345-.371q.961-.407,1.923-.813A1.765,1.765,0,0,0,1035.989,914.779Z" transform="translate(-1032.034 -910.282)" fill="#890c6c"/>
        <path id="Trazado_1514" data-name="Trazado 1514" d="M1210.345,923.681a.158.158,0,0,0,.027.131.132.132,0,0,0,.124,0,5.658,5.658,0,0,0,.522-.336,1.168,1.168,0,0,0,.407-.538,1.611,1.611,0,0,0,.046-.266,1.416,1.416,0,0,0-.2-.249.181.181,0,0,0-.3.112,2.38,2.38,0,0,1-.536.993A.417.417,0,0,0,1210.345,923.681Z" transform="translate(-1205.065 -920.113)" fill="#890c6c"/>
        <path id="Trazado_1515" data-name="Trazado 1515" d="M1354.615,901.58a.794.794,0,0,0,.085-.047,1,1,0,0,0,.355-.465.181.181,0,0,0-.066-.243.155.155,0,0,0-.23.01,1.64,1.64,0,0,0-.27.31.729.729,0,0,0-.081.318C1354.4,901.566,1354.5,901.617,1354.615,901.58Z" transform="translate(-1344.87 -899.154)" fill="#890c6c"/>
      </g>
      <g id="Grupo_1696" data-name="Grupo 1696" transform="translate(8.497 10.218)">
        <path id="Trazado_1516" data-name="Trazado 1516" d="M1148.676,843.647a4.75,4.75,0,0,1,.308-.388,11.033,11.033,0,0,0,1.422-2.04c.123-.237.309-.608.411-.855a.176.176,0,0,0-.044-.208.29.29,0,0,0-.466-.024,6.428,6.428,0,0,0-2.13,3.183.482.482,0,0,1-.1.188q-.582.631-1.172,1.253a.47.47,0,0,1-.126.094c-.035.018-.092.037-.116.021s-.032-.074-.04-.115a.152.152,0,0,1,.008-.068c.069-.255.123-.514.213-.761s.211-.471.319-.7c.028-.06.052-.126-.045-.13a.5.5,0,0,0-.541.267,1.782,1.782,0,0,1-.163.306c-.385.458-.77.916-1.173,1.358a2.019,2.019,0,0,1-.913.592c-.1.031-.164,0-.174-.108a.886.886,0,0,1,.015-.265,2.472,2.472,0,0,1,.625-1.167,1.229,1.229,0,0,1,.484-.332.231.231,0,0,1-.021.14c-.1.139-.212.27-.316.407a.5.5,0,0,0-.047.114c.045.012.1.044.133.033a1.433,1.433,0,0,0,.319-.131.92.92,0,0,0,.471-.643.254.254,0,0,0-.281-.324.392.392,0,0,0-.078.007,2.554,2.554,0,0,0-1.135.686,2.025,2.025,0,0,0-.207.252q-.586.692-1.174,1.382c-.052.06-.115.11-.182.174a.21.21,0,0,1-.008-.057,4.356,4.356,0,0,1,.136-.463c.13-.318.276-.63.415-.946a.135.135,0,0,0-.025-.18.256.256,0,0,0-.35.008c-.116-.155-.257-.118-.393-.034a2.314,2.314,0,0,0-.355.251,4.456,4.456,0,0,0-1.142,1.721,1.131,1.131,0,0,0-.1.551.326.326,0,0,0,.509.245,1.044,1.044,0,0,0,.214-.19c.177-.247.343-.5.51-.755a.42.42,0,0,0,.034-.122l.048.02c.008.048.014.1.024.143a2.925,2.925,0,0,0,.083.377c.074.21.231.251.386.091.174-.18.334-.375.491-.57.135-.169.257-.35.393-.536.007.09.007.166.02.24.072.438.33.664.789.448a2.522,2.522,0,0,0,.438-.267,6.187,6.187,0,0,0,1.083-1.113c.064-.08.127-.162.208-.265-.02.113-.037.2-.05.281a.84.84,0,0,0,.031.43.43.43,0,0,0,.483.308.725.725,0,0,0,.488-.239c.246-.281.48-.571.717-.86.068-.083.126-.174.183-.254.04.139.07.277.119.408a.466.466,0,0,0,.735.3,1.308,1.308,0,0,0,.364-.281,15.2,15.2,0,0,0,1.55-2.17c.055-.088.036-.142-.062-.214l-.066.082c-.352.43-.7.864-1.058,1.288a3.89,3.89,0,0,1-.762.733c-.144.1-.222.068-.269-.1A.581.581,0,0,1,1148.676,843.647Zm1.48-2.911a6.89,6.89,0,0,1-1.255,2.1A8.536,8.536,0,0,1,1150.157,840.736Zm-8.524,5.485-.035-.017a.637.637,0,0,1,.021-.129,3.539,3.539,0,0,1,.935-1.419,1.617,1.617,0,0,1,.229-.146l.026.034A16.214,16.214,0,0,1,1141.633,846.221Z" transform="translate(-1137.526 -840.025)" fill="#fff"/>
        <path id="Trazado_1517" data-name="Trazado 1517" d="M1029.669,908.928a1.268,1.268,0,0,0-.137-.207.3.3,0,0,0-.158-.068,1.15,1.15,0,0,0-.255-.018,3.74,3.74,0,0,0-.979.228l-.278.092a.775.775,0,0,1,.034-.075q.31-.487.621-.973c.1-.155.1-.165-.068-.274.1-.04.189-.08.28-.108q.983-.308,1.967-.612c.164-.051.329-.1.493-.148a.27.27,0,0,0,.07-.052.3.3,0,0,0-.058-.066,1.524,1.524,0,0,0-.742-.25,3.857,3.857,0,0,0-1.079.127,12.2,12.2,0,0,0-2.1.754c-.15.067-.3.138-.458.213l.067-.158a.882.882,0,0,0-.177.049c-.183.1-.368.2-.543.313a2.76,2.76,0,0,0-.378.3.194.194,0,0,0-.012.3.326.326,0,0,0,.338.13,5.6,5.6,0,0,0,.683-.191c.4-.142.8-.3,1.193-.452a1.221,1.221,0,0,1,.124-.033l.009.019c-.062.077-.13.15-.187.231-.268.386-.537.773-.8,1.163a.557.557,0,0,1-.252.214,4.514,4.514,0,0,0-.45.224.154.154,0,0,0-.041.259,1.307,1.307,0,0,0,.138.152.138.138,0,0,1,.026.2,2.691,2.691,0,0,0-.353,1.337.306.306,0,0,0,.049.193.648.648,0,0,0,.447.163,3.538,3.538,0,0,1,.043-.356,2.54,2.54,0,0,1,.109-.343c.126-.334.261-.664.381-1a.6.6,0,0,1,.345-.371q.961-.407,1.922-.813A1.762,1.762,0,0,0,1029.669,908.928Z" transform="translate(-1025.715 -904.431)" fill="#fff"/>
        <path id="Trazado_1518" data-name="Trazado 1518" d="M1204.026,917.831a.157.157,0,0,0,.027.131.133.133,0,0,0,.124,0,5.609,5.609,0,0,0,.521-.336,1.166,1.166,0,0,0,.407-.538,1.573,1.573,0,0,0,.046-.267,1.435,1.435,0,0,0-.2-.248.181.181,0,0,0-.3.112,2.38,2.38,0,0,1-.536.993A.406.406,0,0,0,1204.026,917.831Z" transform="translate(-1198.746 -914.263)" fill="#fff"/>
        <path id="Trazado_1519" data-name="Trazado 1519" d="M1348.3,895.729a.839.839,0,0,0,.085-.046,1,1,0,0,0,.355-.465.181.181,0,0,0-.066-.243.154.154,0,0,0-.23.01,1.629,1.629,0,0,0-.27.31.726.726,0,0,0-.081.318C1348.083,895.715,1348.177,895.766,1348.3,895.729Z" transform="translate(-1338.551 -893.303)" fill="#fff"/>
      </g>
    </g>
  </g>
</svg>
