<svg id="Grupo_1612" data-name="Grupo 1612" xmlns="http://www.w3.org/2000/svg" width="74.387" height="29.019" viewBox="0 0 74.387 29.019">
  <g id="Grupo_1691" data-name="Grupo 1691" transform="translate(0)">
    <path id="Trazado_1490" data-name="Trazado 1490" d="M479.786,279.5c.843,1.964-.743,4.529-3.541,5.73s-5.751.584-6.593-1.38.742-4.529,3.541-5.73S478.943,277.534,479.786,279.5Z" transform="translate(-424.139 -276.191)" fill="#d82c15"/>
    <g id="Grupo_1686" data-name="Grupo 1686" transform="translate(31.887 16.857)">
      <path id="Trazado_1491" data-name="Trazado 1491" d="M450.285,311.836l-7.817.032-.8,2.027h.868a.49.49,0,0,1,.289.676l-2.991,7.463h2.959l1.159-2.8h3.57a3.4,3.4,0,0,0,2.7-1.705l1.608-3.989S452.343,312.19,450.285,311.836Zm-1.834,2.863-.837,1.9s-.16.515-.965.515l-1.9-.064,1.223-3.056h2.059S448.612,313.992,448.451,314.7Z" transform="translate(-439.83 -311.836)" fill="#002063"/>
      <path id="Trazado_1492" data-name="Trazado 1492" d="M453.981,316.6h-2.059l-1.223,3.056,1.9.064c.8,0,.965-.515.965-.515l.837-1.9C454.56,316.6,453.981,316.6,453.981,316.6Z" transform="translate(-445.778 -314.441)" fill="#fff"/>
    </g>
    <g id="Grupo_1687" data-name="Grupo 1687" transform="translate(43.289 16.889)">
      <path id="Trazado_1493" data-name="Trazado 1493" d="M474.1,316.025l1.672-4.118H469.6s-2.477.258-3.153,1.866l-1.319,3.153s-.643,2.059,1.126,2.22h7.977l.837-1.994S473.556,317.344,474.1,316.025Zm-3.314,1.126h-2.155s-.45-.065-.226-.837c0,0,.676-2.316,1.641-2.38l1.9.064Z" transform="translate(-465.013 -311.907)" fill="#002063"/>
      <path id="Trazado_1494" data-name="Trazado 1494" d="M472.436,318.764c-.225.772.226.837.226.837h2.155l1.159-3.153-1.9-.064C473.112,316.448,472.436,318.764,472.436,318.764Z" transform="translate(-469.041 -314.357)" fill="#fff"/>
    </g>
    <g id="Grupo_1688" data-name="Grupo 1688" transform="translate(53.007 15.172)">
      <path id="Trazado_1495" data-name="Trazado 1495" d="M496.546,311.974l-1.095-1.174a.538.538,0,0,1,.04-.835l.537-.378-1.374-1.472a73.873,73.873,0,0,0-7.48,4.357,1.463,1.463,0,0,0-.04,1.672l2.606,2.706a.652.652,0,0,1-.5.9l-1.851-.02-.915,2.009c.478,0,3.3-.04,3.3-.04a9.183,9.183,0,0,0,3.283-2.328,1.147,1.147,0,0,0-.02-1.294c-.339-.417.22-.6.22-.6a16.1,16.1,0,0,0,3.124-2.129A1.3,1.3,0,0,0,496.546,311.974Zm-3.1,1.074-2.228,1.413a.422.422,0,0,1-.537-.06l-.9-1.015c-.239-.3.139-.737.139-.737l1.711-1.094c.756-.318,1.055.019,1.055.019l.756.737A.647.647,0,0,1,493.442,313.048Z" transform="translate(-486.478 -308.114)" fill="#002063"/>
      <path id="Trazado_1496" data-name="Trazado 1496" d="M496.583,315.571s-.3-.338-1.054-.019l-1.711,1.094s-.378.438-.139.737l.9,1.015a.422.422,0,0,0,.537.06l2.228-1.413a.647.647,0,0,0,0-.736Z" transform="translate(-490.375 -312.11)" fill="#fff"/>
    </g>
    <g id="Grupo_1689" data-name="Grupo 1689" transform="translate(63.168 16.623)">
      <path id="Trazado_1497" data-name="Trazado 1497" d="M519.887,313.979a23.5,23.5,0,0,0-2.765-2.427,3.033,3.033,0,0,0-2.348.02s-3.5,1.751-5.133,2.845a1.686,1.686,0,0,0-.637,1.771,20.1,20.1,0,0,0,2.706,2.706,2.627,2.627,0,0,0,2.189.139,22.376,22.376,0,0,0,5.969-3.422A1.379,1.379,0,0,0,519.887,313.979Zm-3.3,1.472c-.02.1-2.01,1.154-2.01,1.154a1.106,1.106,0,0,1-1.094.04,5.962,5.962,0,0,1-.955-.955c-.239-.259.019-.637.019-.637a14.147,14.147,0,0,1,2.09-1.253c.4-.259,1.034.06,1.034.06l.916.835A.529.529,0,0,1,516.586,315.451Z" transform="translate(-508.92 -311.319)" fill="#002063"/>
      <path id="Trazado_1498" data-name="Trazado 1498" d="M519.905,316.736s-.636-.318-1.034-.06a14.144,14.144,0,0,0-2.09,1.253s-.259.378-.019.637a5.965,5.965,0,0,0,.955.955,1.106,1.106,0,0,0,1.094-.04s1.99-1.054,2.01-1.154a.529.529,0,0,0,0-.756Z" transform="translate(-513.156 -314.195)" fill="#fff"/>
    </g>
    <path id="Trazado_1499" data-name="Trazado 1499" d="M436.746,311.921H433.8s-1.871,4.556-2.05,5.173c0,0-.358,1.114.179,1.552a2.039,2.039,0,0,0,1.214.577l2.049-.02.876-2.029h-.657a.6.6,0,0,1-.438-.876Z" transform="translate(-403.458 -295.025)" fill="#d82c15"/>
    <path id="Trazado_1500" data-name="Trazado 1500" d="M438.443,305.244a2.365,2.365,0,0,1,1.711.06.854.854,0,0,1,.159,1.333,2.171,2.171,0,0,1-1.87.856s-1.154.139-1.234-.816C437.21,306.677,437.15,305.7,438.443,305.244Z" transform="translate(-406.509 -291.293)" fill="#d82c15"/>
    <g id="Grupo_1690" data-name="Grupo 1690" transform="translate(16.594 16.836)">
      <path id="Trazado_1501" data-name="Trazado 1501" d="M417.572,312.306a2.151,2.151,0,0,0-1.393-.517l-7.5.02-.776,2.069h.637s.7,0,.3,1.015l-2.786,7.123,2.925.02,1.074-2.925,3.8.02a2.558,2.558,0,0,0,2.089-1.094,17.061,17.061,0,0,0,1.91-4.218S418.229,312.824,417.572,312.306Zm-3.044,2.407a8.469,8.469,0,0,1-.756,1.83,1.326,1.326,0,0,1-.995.517h-1.89l1.274-3.084h1.97C414.807,314,414.528,314.714,414.528,314.714Z" transform="translate(-406.052 -311.789)" fill="#d82c15"/>
      <path id="Trazado_1502" data-name="Trazado 1502" d="M419.974,316.623H418l-1.274,3.084h1.89a1.326,1.326,0,0,0,.995-.517,8.467,8.467,0,0,0,.756-1.831S420.651,316.643,419.974,316.623Z" transform="translate(-411.896 -314.434)" fill="#fff"/>
    </g>
    <path id="Trazado_1503" data-name="Trazado 1503" d="M395.264,315.888l1.652-4.079-5.929-.02a5.359,5.359,0,0,0-1.89.458,2.634,2.634,0,0,0-1.413,1.353,25.766,25.766,0,0,0-1.333,3.183c-.517,1.254,0,1.692,0,1.692a1.885,1.885,0,0,0,1.452.676l7.6.02.836-2.01L395.3,317C394.846,316.783,395.264,315.888,395.264,315.888Zm-3.343,1.134-1.97.04s-.716-.04-.4-.975a5.654,5.654,0,0,1,.756-1.672,1.137,1.137,0,0,1,1.035-.477l1.731.04Z" transform="translate(-378.551 -294.953)" fill="#d82c15"/>
    <path id="Trazado_1504" data-name="Trazado 1504" d="M378.355,311.853l-.876,2.109h-2.328s-.637-.119-1.035.776l-1.731,4.417-2.985.04,2.9-7.362Z" transform="translate(-369.401 -294.977)" fill="#d82c15"/>
    <path id="Trazado_1505" data-name="Trazado 1505" d="M463.032,274.626s-2.885.975-3.86,2.109a7.983,7.983,0,0,0-2.189,3.8s-.258,2.189.816,3.263a5.652,5.652,0,0,0,1.97,1.612,7.842,7.842,0,0,0,3.461.378s3.463-.438,5.273-2.428a10.807,10.807,0,0,1-3.661,3.741,14.678,14.678,0,0,1-4.975,2.089,12.193,12.193,0,0,1-5.252.119,7.152,7.152,0,0,1-3.681-1.99,4.763,4.763,0,0,1-1.294-3.044A6.987,6.987,0,0,1,451.133,280a15.787,15.787,0,0,1,3.383-3.064,23.462,23.462,0,0,1,3.879-1.751A14.189,14.189,0,0,1,463.032,274.626Z" transform="translate(-413.31 -274.603)" fill="#002063"/>
    <path id="Trazado_1506" data-name="Trazado 1506" d="M504.656,338.006s.136-.05.148.123c0,0-.024.271-.148.16C504.656,338.289,504.46,337.993,504.656,338.006Z" transform="translate(-443.371 -309.296)" fill="none"/>
  </g>
</svg>
