<svg id="visa" xmlns="http://www.w3.org/2000/svg" width="65.179" height="19.76" viewBox="0 0 65.179 19.76">
  <path id="Trazado_1468" data-name="Trazado 1468" d="M184.8,199.022l3.311-18.623h5.173l-3.207,18.623Z" transform="translate(-160.901 -179.779)" fill="#3c58bf"/>
  <path id="Trazado_1469" data-name="Trazado 1469" d="M184.8,199.022l4.242-18.623h4.242l-3.207,18.623Z" transform="translate(-160.901 -179.779)" fill="#293688"/>
  <path id="Trazado_1470" data-name="Trazado 1470" d="M263.829,176.428a13.122,13.122,0,0,0-4.759-.828c-5.173,0-8.9,2.586-8.9,6.311,0,2.793,2.587,4.242,4.656,5.173s2.69,1.552,2.69,2.38c0,1.241-1.655,1.862-3.1,1.862a11.244,11.244,0,0,1-4.966-1.035l-.724-.31L248,194.222a16.774,16.774,0,0,0,5.9,1.035c5.483,0,9.1-2.586,9.1-6.518,0-2.173-1.345-3.828-4.449-5.173-1.862-.931-3-1.448-3-2.38,0-.828.931-1.655,3-1.655a9.489,9.489,0,0,1,3.931.724l.517.207.828-4.035Z" transform="translate(-215.928 -175.6)" fill="#3c58bf"/>
  <path id="Trazado_1471" data-name="Trazado 1471" d="M263.829,176.428a13.122,13.122,0,0,0-4.759-.828c-5.173,0-7.966,2.586-7.966,6.311,0,2.793,1.655,4.242,3.724,5.173s2.69,1.552,2.69,2.38c0,1.241-1.655,1.862-3.1,1.862a11.244,11.244,0,0,1-4.966-1.035l-.724-.31L248,194.222a16.774,16.774,0,0,0,5.9,1.035c5.483,0,9.1-2.586,9.1-6.518,0-2.173-1.345-3.828-4.449-5.173-1.862-.931-3-1.448-3-2.38,0-.828.931-1.655,3-1.655a9.489,9.489,0,0,1,3.931.724l.517.207.828-4.035Z" transform="translate(-215.928 -175.6)" fill="#293688"/>
  <path id="Trazado_1472" data-name="Trazado 1472" d="M368.849,180.4c-1.242,0-2.173.1-2.69,1.345L358.4,199.022h5.587l1.035-3.1h6.621l.621,3.1h4.966L372.884,180.4Zm-2.38,12.415c.31-.931,2.069-5.483,2.069-5.483s.414-1.138.724-1.862l.31,1.759s1.035,4.656,1.241,5.69H366.47Z" transform="translate(-312.051 -179.779)" fill="#3c58bf"/>
  <path id="Trazado_1473" data-name="Trazado 1473" d="M370.091,180.4c-1.242,0-2.173.1-2.69,1.345l-9,17.278h5.587l1.035-3.1h6.621l.621,3.1h4.966L372.884,180.4Zm-3.621,12.415c.414-1.035,2.069-5.483,2.069-5.483s.414-1.138.724-1.862l.31,1.759s1.035,4.656,1.241,5.69H366.47Z" transform="translate(-312.051 -179.779)" fill="#293688"/>
  <path id="Trazado_1474" data-name="Trazado 1474" d="M58.959,194.132l-.517-2.69a15,15,0,0,0-7.242-8.173l4.656,16.553h5.587l8.38-18.622H64.236Z" transform="translate(-44.579 -180.476)" fill="#3c58bf"/>
  <path id="Trazado_1475" data-name="Trazado 1475" d="M58.959,194.132l-.517-2.69a15,15,0,0,0-7.242-8.173l4.656,16.553h5.587l8.38-18.622H65.27Z" transform="translate(-44.579 -180.476)" fill="#293688"/>
  <path id="Trazado_1476" data-name="Trazado 1476" d="M0,180.4l.931.207c6.621,1.552,11.174,5.483,12.932,10.139L12,181.952c-.31-1.242-1.242-1.552-2.38-1.552Z" transform="translate(0 -179.779)" fill="#ffbc00"/>
  <path id="Trazado_1477" data-name="Trazado 1477" d="M0,180.4H0c6.621,1.552,12.1,5.587,13.863,10.242L12.1,183.3a2.525,2.525,0,0,0-2.483-1.966Z" transform="translate(0 -179.779)" fill="#f7981d"/>
  <path id="Trazado_1478" data-name="Trazado 1478" d="M0,180.4H0c6.621,1.552,12.1,5.587,13.863,10.242l-1.241-4.035c-.31-1.242-.724-2.483-2.173-3Z" transform="translate(0 -179.779)" fill="#ed7c00"/>
  <g id="Grupo_1602" data-name="Grupo 1602" transform="translate(6.725 2.69)">
    <path id="Trazado_1479" data-name="Trazado 1479" d="M64.829,206.746l-3.518-3.518-1.655,3.931-.414-2.587A15,15,0,0,0,52,196.4l4.656,16.553h5.587Z" transform="translate(-52 -196.4)" fill="#051244"/>
    <path id="Trazado_1480" data-name="Trazado 1480" d="M190.076,293.752l-4.449-4.552-.828,4.552Z" transform="translate(-167.626 -277.199)" fill="#051244"/>
    <path id="Trazado_1481" data-name="Trazado 1481" d="M257,274.8h0c.414.414.621.724.517,1.138,0,1.242-1.655,1.862-3.1,1.862a11.245,11.245,0,0,1-4.966-1.035l-.724-.31L248,280.7a16.775,16.775,0,0,0,5.9,1.035c3.311,0,6-.931,7.552-2.586Z" transform="translate(-222.653 -264.661)" fill="#051244"/>
    <path id="Trazado_1482" data-name="Trazado 1482" d="M364,233.153h4.863l1.035-3.1h6.621l.621,3.1h4.966l-1.759-7.552-6.207-6,.31,1.655s1.034,4.656,1.241,5.69h-4.345c.414-1.035,2.069-5.483,2.069-5.483s.414-1.138.724-1.862" transform="translate(-323.651 -216.6)" fill="#051244"/>
  </g>
</svg>
