<svg xmlns="http://www.w3.org/2000/svg" width="15" height="15" viewBox="0 0 14 12.25">
  <g id="menu-left-alt" transform="translate(-6 -7.5)">
    <path id="Trazado_53288" data-name="Trazado 53288" d="M6,8.375A.875.875,0,0,1,6.875,7.5h12.25a.875.875,0,0,1,0,1.75H6.875A.875.875,0,0,1,6,8.375Z" transform="translate(0)"/>
    <path id="Trazado_53289" data-name="Trazado 53289" d="M6,26.375a.875.875,0,0,1,.875-.875h12.25a.875.875,0,0,1,0,1.75H6.875A.875.875,0,0,1,6,26.375Z" transform="translate(0 -7.5)"/>
    <path id="Trazado_53290" data-name="Trazado 53290" d="M6.875,16.5a.875.875,0,0,0,0,1.75h7a.875.875,0,0,0,0-1.75Z" transform="translate(0 -3.75)"/>
  </g>
</svg>